<svg xmlns="http://www.w3.org/2000/svg" viewBox="0 0 1600 900" role="img" aria-label="SENA PROFESSIONAL">
  <defs><linearGradient id="bg" x1="0" y1="0" x2="0" y2="1"><stop offset="0" stop-color="#e3ece6"/><stop offset="1" stop-color="#b7cdc0"/></linearGradient>
    <linearGradient id="pod" x1="0" y1="0" x2="1" y2="0"><stop offset="0" stop-color="#d6d1c4"/><stop offset=".45" stop-color="#faf8f3"/><stop offset="1" stop-color="#d6d1c4"/></linearGradient>
    <radialGradient id="sun" cx=".5" cy=".5" r=".5"><stop offset="0" stop-color="#f7faf8" stop-opacity=".95"/><stop offset="1" stop-color="#f7faf8" stop-opacity="0"/></radialGradient>
    <linearGradient id="beam" x1="0" y1="0" x2="1" y2="1"><stop offset="0" stop-color="#fff" stop-opacity=".35"/><stop offset="1" stop-color="#fff" stop-opacity="0"/></linearGradient>
    <filter id="soft" x="-50%" y="-200%" width="200%" height="500%"><feGaussianBlur stdDeviation="12"/></filter><linearGradient id="b0-body" x1="0" y1="0" x2="1" y2="0"><stop offset="0" stop-color="#87a596"/><stop offset=".42" stop-color="#a9c2b5"/><stop offset="1" stop-color="#87a596"/></linearGradient>
    <linearGradient id="b0-cap" x1="0" y1="0" x2="1" y2="0"><stop offset="0" stop-color="#d9dbd4"/><stop offset=".45" stop-color="#f6f6f2"/><stop offset="1" stop-color="#d9dbd4"/></linearGradient><linearGradient id="b1-body" x1="0" y1="0" x2="1" y2="0"><stop offset="0" stop-color="#d9d7cf"/><stop offset=".42" stop-color="#f6f5f1"/><stop offset="1" stop-color="#d9d7cf"/></linearGradient>
    <linearGradient id="b1-cap" x1="0" y1="0" x2="1" y2="0"><stop offset="0" stop-color="#9aa0a6"/><stop offset=".45" stop-color="#d4d7db"/><stop offset="1" stop-color="#9aa0a6"/></linearGradient><linearGradient id="b2-body" x1="0" y1="0" x2="1" y2="0"><stop offset="0" stop-color="#87a596"/><stop offset=".42" stop-color="#a9c2b5"/><stop offset="1" stop-color="#87a596"/></linearGradient>
    <linearGradient id="b2-cap" x1="0" y1="0" x2="1" y2="0"><stop offset="0" stop-color="#d9dbd4"/><stop offset=".45" stop-color="#f6f6f2"/><stop offset="1" stop-color="#d9dbd4"/></linearGradient></defs>
  <rect width="1600" height="900" fill="url(#bg)"/>
  <circle cx="820" cy="400" r="430" fill="url(#sun)"/>
  <polygon points="980,0 1260,0 760,900 480,900" fill="url(#beam)"/>
  <g transform="translate(1060 330) rotate(-28) scale(1.5)" opacity="0.55"><path d="M0 0 C40 -48 124 -48 166 0 C124 48 40 48 0 0 Z" fill="#7e9e8d"/><path d="M10 0 H154" stroke="#fff" stroke-opacity=".28" stroke-width="2.5"/></g><g transform="translate(560 420) rotate(205) scale(1.2)" opacity="0.45"><path d="M0 0 C40 -48 124 -48 166 0 C124 48 40 48 0 0 Z" fill="#7e9e8d"/><path d="M10 0 H154" stroke="#fff" stroke-opacity=".28" stroke-width="2.5"/></g><g transform="translate(1240 520) rotate(18) scale(0.9)" opacity="0.35"><path d="M0 0 C40 -48 124 -48 166 0 C124 48 40 48 0 0 Z" fill="#7e9e8d"/><path d="M10 0 H154" stroke="#fff" stroke-opacity=".28" stroke-width="2.5"/></g>
  <text x="70" y="860" font-family="Georgia,'Times New Roman',serif" font-size="150" letter-spacing="18" fill="#000" opacity=".06">SENA</text>
  <rect x="640" y="570" width="320" height="230" fill="url(#pod)"/><ellipse cx="800" cy="800" rx="160" ry="25.6" fill="url(#pod)"/><ellipse cx="800" cy="570" rx="160" ry="25.6" fill="#faf8f3"/><g transform="translate(800 570) scale(1) translate(-400 -646)"><ellipse cx="400" cy="646" rx="150" ry="14" fill="#000" opacity=".22" filter="url(#soft)"/><rect x="310" y="330" width="180" height="310" rx="42" fill="url(#b0-body)"/><rect x="330" y="360" width="14" height="240" rx="7" fill="#fff" opacity=".26"/>
    <rect x="368" y="292" width="64" height="44" rx="8" fill="url(#b0-cap)"/><rect x="356" y="276" width="88" height="24" rx="7" fill="url(#b0-cap)"/>
    <rect x="392" y="236" width="16" height="44" fill="url(#b0-cap)"/><rect x="350" y="212" width="100" height="30" rx="10" fill="url(#b0-cap)"/>
    <path d="M448 220 h58 a7 7 0 0 1 0 14 h-58 z" fill="url(#b0-cap)"/><rect x="330" y="420" width="140" height="160" rx="6" fill="#f8f8f5" opacity=".96"/>
  <text x="400" y="487.2" text-anchor="middle" font-family="Georgia,'Times New Roman',serif" font-size="28" letter-spacing="5.6" fill="#4e6c5e">SENA</text>
  <rect x="386" y="503.2" width="28" height="1.6" fill="#4e6c5e" opacity=".6"/>
  <text x="400" y="528.8" text-anchor="middle" font-family="'Helvetica Neue',Arial,sans-serif" font-size="9" letter-spacing="1.6" fill="#4e6c5e">MOIST REPAIR SHAMPOO</text>
  <text x="400" y="560.8" text-anchor="middle" font-family="'Helvetica Neue',Arial,sans-serif" font-size="9" letter-spacing="1.2" fill="#4e6c5e" opacity=".75">500 mL</text></g><rect x="325" y="650" width="270" height="150" fill="url(#pod)"/><ellipse cx="460" cy="800" rx="135" ry="21.6" fill="url(#pod)"/><ellipse cx="460" cy="650" rx="135" ry="21.6" fill="#faf8f3"/><g transform="translate(460 650) scale(0.84) translate(-400 -646)"><ellipse cx="400" cy="646" rx="150" ry="14" fill="#000" opacity=".22" filter="url(#soft)"/><rect x="250" y="452" width="300" height="188" rx="36" fill="url(#b1-body)"/><rect x="272" y="476" width="14" height="130" rx="7" fill="#fff" opacity=".26"/>
    <rect x="238" y="392" width="324" height="72" rx="16" fill="url(#b1-cap)"/><rect x="238" y="452" width="324" height="6" fill="#000" opacity=".08"/><rect x="292" y="488" width="216" height="120" rx="6" fill="#f8f8f5" opacity=".96"/>
  <text x="400" y="538.4" text-anchor="middle" font-family="Georgia,'Times New Roman',serif" font-size="28" letter-spacing="5.6" fill="#4e6c5e">SENA</text>
  <rect x="386" y="550.4" width="28" height="1.6" fill="#4e6c5e" opacity=".6"/>
  <text x="400" y="569.6" text-anchor="middle" font-family="'Helvetica Neue',Arial,sans-serif" font-size="12" letter-spacing="1.6" fill="#4e6c5e">INTENSIVE REPAIR MASK</text>
  <text x="400" y="593.6" text-anchor="middle" font-family="'Helvetica Neue',Arial,sans-serif" font-size="11" letter-spacing="1.2" fill="#4e6c5e" opacity=".75">250 g</text></g><rect x="1010" y="680" width="260" height="120" fill="url(#pod)"/><ellipse cx="1140" cy="800" rx="130" ry="20.8" fill="url(#pod)"/><ellipse cx="1140" cy="680" rx="130" ry="20.8" fill="#faf8f3"/><g transform="translate(1140 680) scale(0.8) translate(-400 -646)"><ellipse cx="400" cy="646" rx="150" ry="14" fill="#000" opacity=".22" filter="url(#soft)"/><path d="M352 586 L330 252 Q330 236 346 236 L454 236 Q470 236 470 252 L448 586 Z" fill="url(#b2-body)"/><rect x="348" y="262" width="14" height="290" rx="7" fill="#fff" opacity=".26"/>
    <rect x="324" y="210" width="152" height="32" rx="4" fill="url(#b2-body)"/><g opacity=".18" fill="#000"><rect x="324" y="216" width="152" height="2"/><rect x="324" y="224" width="152" height="2"/><rect x="324" y="232" width="152" height="2"/></g>
    <rect x="344" y="578" width="112" height="62" rx="12" fill="url(#b2-cap)"/><rect x="352" y="330" width="96" height="170" rx="6" fill="#f8f8f5" opacity=".96"/>
  <text x="400" y="401.4" text-anchor="middle" font-family="Georgia,'Times New Roman',serif" font-size="21" letter-spacing="4.2" fill="#4e6c5e">SENA</text>
  <rect x="386" y="418.4" width="28" height="1.6" fill="#4e6c5e" opacity=".6"/>
  <text x="400" y="445.6" text-anchor="middle" font-family="'Helvetica Neue',Arial,sans-serif" font-size="7" letter-spacing="1.6" fill="#4e6c5e">HEAT PROTECT MILK</text>
  <text x="400" y="479.6" text-anchor="middle" font-family="'Helvetica Neue',Arial,sans-serif" font-size="7" letter-spacing="1.2" fill="#4e6c5e" opacity=".75">120 mL</text></g>
</svg>
