<svg xmlns="http://www.w3.org/2000/svg" viewBox="0 0 800 800" role="img" aria-label="CALMÉ SCALP 頭皮クレンジングジェル">
  <defs>
    <linearGradient id="bg" x1="0" y1="0" x2="0" y2="1"><stop offset="0" stop-color="#e8f3f1"/><stop offset="1" stop-color="#cde5e1"/></linearGradient>
    <linearGradient id="body" x1="0" y1="0" x2="1" y2="0"><stop offset="0" stop-color="#d4e8e4"/><stop offset=".42" stop-color="#f3f9f8"/><stop offset="1" stop-color="#d4e8e4"/></linearGradient>
    <linearGradient id="cap" x1="0" y1="0" x2="1" y2="0"><stop offset="0" stop-color="#2f7368"/><stop offset=".45" stop-color="#4c9a8f"/><stop offset="1" stop-color="#2f7368"/></linearGradient>
    <filter id="soft" x="-50%" y="-200%" width="200%" height="500%"><feGaussianBlur stdDeviation="12"/></filter>
  </defs>
  <rect width="800" height="800" fill="url(#bg)"/>
  <g transform="translate(400 690) scale(1.3) translate(-400 -646)">
  <ellipse cx="400" cy="646" rx="170" ry="16" fill="#000" opacity=".16" filter="url(#soft)"/>
  <path d="M352 586 L330 252 Q330 236 346 236 L454 236 Q470 236 470 252 L448 586 Z" fill="url(#body)"/><rect x="348" y="262" width="14" height="290" rx="7" fill="#fff" opacity=".26"/>
    <rect x="324" y="210" width="152" height="32" rx="4" fill="url(#body)"/><g opacity=".18" fill="#000"><rect x="324" y="216" width="152" height="2"/><rect x="324" y="224" width="152" height="2"/><rect x="324" y="232" width="152" height="2"/></g>
    <rect x="344" y="578" width="112" height="62" rx="12" fill="url(#cap)"/><rect x="352" y="330" width="96" height="170" rx="6" fill="#ffffff" opacity=".96"/>
  <text x="400" y="401.4" text-anchor="middle" font-family="Georgia,'Times New Roman',serif" font-size="16" letter-spacing="3.2" fill="#2c7368">CALMÉ</text>
  <rect x="386" y="418.4" width="28" height="1.6" fill="#2c7368" opacity=".6"/>
  <text x="400" y="445.6" text-anchor="middle" font-family="'Helvetica Neue',Arial,sans-serif" font-size="12" letter-spacing="1.6" fill="#2c7368">SCALP GEL</text>
  <text x="400" y="479.6" text-anchor="middle" font-family="'Helvetica Neue',Arial,sans-serif" font-size="11" letter-spacing="1.2" fill="#2c7368" opacity=".75">150 g</text>
  </g>
</svg>
