<svg xmlns="http://www.w3.org/2000/svg" viewBox="0 0 800 800" role="img" aria-label="HARU ORGANICS オーガニック トリートメント">
  <defs>
    <linearGradient id="bg" x1="0" y1="0" x2="0" y2="1"><stop offset="0" stop-color="#f6eee6"/><stop offset="1" stop-color="#e9dacb"/></linearGradient>
    <linearGradient id="body" x1="0" y1="0" x2="1" y2="0"><stop offset="0" stop-color="#ddcbb4"/><stop offset=".42" stop-color="#f3e8da"/><stop offset="1" stop-color="#ddcbb4"/></linearGradient>
    <linearGradient id="cap" x1="0" y1="0" x2="1" y2="0"><stop offset="0" stop-color="#94492a"/><stop offset=".45" stop-color="#c06d47"/><stop offset="1" stop-color="#94492a"/></linearGradient>
    <filter id="soft" x="-50%" y="-200%" width="200%" height="500%"><feGaussianBlur stdDeviation="12"/></filter>
  </defs>
  <rect width="800" height="800" fill="url(#bg)"/>
  <g transform="translate(400 690) scale(1.3) translate(-400 -646)">
  <ellipse cx="400" cy="646" rx="170" ry="16" fill="#000" opacity=".16" filter="url(#soft)"/>
  <rect x="250" y="452" width="300" height="188" rx="36" fill="url(#body)"/><rect x="272" y="476" width="14" height="130" rx="7" fill="#fff" opacity=".26"/>
    <rect x="238" y="392" width="324" height="72" rx="16" fill="url(#cap)"/><rect x="238" y="452" width="324" height="6" fill="#000" opacity=".08"/><rect x="292" y="488" width="216" height="120" rx="6" fill="#fcf7f0" opacity=".96"/>
  <text x="400" y="538.4" text-anchor="middle" font-family="Georgia,'Times New Roman',serif" font-size="28" letter-spacing="5.6" fill="#9b5536">HARU</text>
  <rect x="386" y="550.4" width="28" height="1.6" fill="#9b5536" opacity=".6"/>
  <text x="400" y="569.6" text-anchor="middle" font-family="'Helvetica Neue',Arial,sans-serif" font-size="12" letter-spacing="1.6" fill="#9b5536">ORGANIC TREATMENT</text>
  <text x="400" y="593.6" text-anchor="middle" font-family="'Helvetica Neue',Arial,sans-serif" font-size="11" letter-spacing="1.2" fill="#9b5536" opacity=".75">250 g</text>
  </g>
</svg>
